<?xml version="1.0" encoding="UTF-8"?> <svg xmlns="http://www.w3.org/2000/svg" id="Camada_1" version="1.1" viewBox="0 0 438.3 155.17"><defs><style> .st0, .st1, .st2 { font-family: ComercioSans-Book, 'Comercio Sans'; font-size: 28.4px; } .st0, .st3, .st4 { fill: #004a8d; } .st1, .st5, .st6, .st7 { fill: #fff; } .st5, .st3, .st8 { font-size: 84.24px; letter-spacing: -.04em; } .st5, .st3, .st8, .st9, .st10, .st7 { font-family: ComercioSans-Bold, 'Comercio Sans'; font-weight: 700; } .st2, .st8, .st11, .st9 { fill: #1d1d1b; } .st12, .st10 { fill: #c89633; } .st9, .st10, .st7 { font-size: 82.72px; } </style></defs><rect class="st11" x="-937.25" y="1056.98" width="806.33" height="424.86"></rect><g><g><path class="st12" d="M-450.35,86.32h-63.42c-13.9,0-28.09,7.49-34.66,12.19-31.69,22.65-47.27,68.45-47.27,68.45,4.4-7.66,36.72-66.86,80.56-66.86h46.33s.13,7.66-3.91,12.97c25.17-8.67,22.37-26.74,22.37-26.74"></path><path class="st12" d="M-505.79,117.61c-.08,1.51-.41,5.84-2.47,9.68h-.03v.02c20.7-1.81,30.69-8.03,35.41-14.2-7.92,2.71-18.55,4.49-32.91,4.49"></path><path class="st4" d="M-520.75,127.9s-4.49-.05-12.79-.24c-33.27-.76-49.01,23.44-56.7,35.22,7.69-8.03,22.72-22.99,49.99-22.47,21.13.4,28.93-6.43,32.08-13.1-3.84.35-7.99.69-12.57.61"></path></g><g><text class="st0" transform="translate(-802 280.74)"><tspan x="0" y="0">Sindicato Empresarial do Sistema Comércio</tspan></text><text class="st3" transform="translate(-802.8 220.05)"><tspan x="0" y="0">Sinca</tspan></text></g><text class="st10" transform="translate(-569.12 219.06)"><tspan x="0" y="0">RS</tspan></text></g><g><g><path class="st12" d="M258.49,8.37h-45.16c-9.9,0-20,5.33-24.68,8.68-22.56,16.13-33.66,48.74-33.66,48.74,3.13-5.45,26.15-47.61,57.36-47.61h32.99s.09,5.46-2.78,9.23c17.92-6.17,15.93-19.04,15.93-19.04"></path><path class="st12" d="M219,30.65c-.06,1.08-.29,4.16-1.76,6.89h-.02v.02c14.74-1.29,21.85-5.72,25.22-10.11-5.64,1.93-13.21,3.2-23.43,3.2"></path><path class="st4" d="M208.35,37.97s-3.19-.04-9.11-.17c-23.69-.54-34.9,16.69-40.38,25.08,5.48-5.72,16.18-16.37,35.59-16,15.04.29,20.6-4.58,22.84-9.33-2.73.25-5.69.49-8.95.43"></path></g><g><g><path class="st4" d="M14.83,138.59c1.71.35,2.98.84,3.79,1.46s1.22,1.48,1.22,2.59c0,.62-.13,1.2-.39,1.74s-.63,1.01-1.09,1.41c-.46.4-1.02.71-1.66.94-.64.23-1.34.34-2.11.34-1.93,0-3.65-.49-5.18-1.48l1.23-1.07c.61.36,1.23.64,1.87.82.64.18,1.35.27,2.13.27.51,0,.98-.08,1.41-.23.42-.15.79-.36,1.09-.63.3-.26.54-.56.7-.9s.24-.69.24-1.05c0-.34-.06-.64-.17-.9-.11-.26-.32-.5-.62-.72-.3-.21-.71-.41-1.22-.6-.52-.18-1.18-.35-1.99-.52-.89-.17-1.66-.36-2.3-.56-.65-.2-1.18-.43-1.61-.71-.42-.28-.74-.61-.94-1.01s-.3-.89-.3-1.49.12-1.09.37-1.58c.25-.49.6-.9,1.05-1.24.45-.34.98-.61,1.6-.81.61-.2,1.28-.29,2.01-.29.82,0,1.56.08,2.22.23.66.16,1.29.39,1.88.7v1.86c-.67-.47-1.35-.81-2.02-1.02s-1.38-.31-2.12-.31c-1.01,0-1.81.22-2.4.67-.59.45-.88,1-.88,1.66,0,.34.06.62.18.85.12.23.34.43.65.61s.73.34,1.27.49c.54.15,1.23.31,2.08.49Z"></path><path class="st4" d="M23.82,132.4v1.36h-1.8v-1.36h1.8ZM22.02,136.31h1.8v10.5h-1.8v-10.5Z"></path><path class="st4" d="M31.57,136.13c.69,0,1.34.13,1.95.39.61.26,1.15.62,1.6,1.06.45.45.81.97,1.07,1.57.26.6.39,1.24.39,1.91v5.76h-1.7v-2.06h-.02v-3.69c0-.44-.07-.88-.21-1.31s-.35-.81-.63-1.15c-.28-.34-.62-.61-1.03-.82-.41-.21-.89-.31-1.43-.31s-1.01.1-1.43.31c-.41.21-.76.48-1.04.82-.28.34-.5.72-.64,1.15s-.21.87-.21,1.31v5.75h-1.72v-5.76c0-.67.13-1.31.39-1.91.26-.6.62-1.12,1.07-1.57.45-.44.98-.8,1.6-1.06.61-.26,1.27-.39,1.97-.39Z"></path><path class="st4" d="M50.48,132.04v14.76h-1.76v-1.33c-.49.49-1.08.87-1.77,1.16s-1.47.43-2.34.43-1.7-.15-2.44-.46c-.73-.3-1.37-.71-1.89-1.22-.53-.51-.93-1.11-1.22-1.8-.29-.69-.43-1.42-.43-2.18s.14-1.49.43-2.16c.29-.67.69-1.27,1.21-1.78.52-.51,1.14-.92,1.87-1.21.73-.3,1.54-.45,2.43-.45s1.66.15,2.36.43c.69.29,1.29.68,1.79,1.18v-5.38h1.76ZM44.57,145.61c.62,0,1.18-.11,1.69-.32s.94-.52,1.3-.9c.36-.38.65-.83.85-1.33.2-.51.3-1.05.3-1.65s-.09-1.12-.28-1.64-.46-.96-.82-1.33c-.36-.38-.79-.67-1.29-.89s-1.08-.32-1.71-.32-1.19.11-1.7.33c-.51.22-.95.52-1.32.9-.37.38-.66.83-.86,1.34-.2.52-.3,1.07-.3,1.65s.1,1.12.29,1.63c.2.51.47.95.83,1.33s.79.67,1.3.89c.51.22,1.08.32,1.72.32Z"></path><path class="st4" d="M55.13,132.4v1.36h-1.8v-1.36h1.8ZM53.33,136.31h1.8v10.5h-1.8v-10.5Z"></path><path class="st4" d="M64.39,147.01c-.31.04-.63.06-.97.06-.89,0-1.72-.14-2.49-.43s-1.43-.68-1.99-1.17-1-1.07-1.31-1.73c-.32-.66-.47-1.36-.47-2.1s.16-1.45.47-2.11c.32-.67.75-1.25,1.31-1.76.56-.5,1.22-.9,1.99-1.19s1.6-.43,2.49-.43c.34,0,.66.02.97.06v1.39c-.34-.07-.67-.1-.99-.1-.62,0-1.2.1-1.73.31-.53.21-.99.5-1.39.87-.39.37-.7.81-.92,1.31-.22.5-.33,1.03-.33,1.6s.11,1.1.34,1.6c.23.5.54.94.94,1.31.4.37.87.66,1.42.87.55.21,1.14.31,1.79.31.32,0,.61-.03.87-.08v1.42Z"></path><path class="st4" d="M71.13,136.09c1.57,0,2.78.36,3.62,1.08.84.72,1.26,1.79,1.26,3.21v6.43h-1.64v-1.6c-.2.24-.46.47-.77.69-.31.22-.66.41-1.04.58-.38.17-.81.3-1.27.4-.47.1-.95.15-1.45.15-.53,0-1.04-.07-1.54-.21s-.94-.35-1.31-.63c-.38-.28-.68-.62-.91-1.04s-.34-.9-.34-1.46c0-1.13.42-1.99,1.27-2.58.85-.59,2-.88,3.46-.88.73,0,1.43.04,2.11.12.68.08,1.28.19,1.79.32v-.28c0-.97-.3-1.7-.9-2.18-.6-.49-1.44-.73-2.51-.73-.69,0-1.3.07-1.85.22-.55.15-1.09.34-1.61.57v-1.5c.55-.21,1.11-.38,1.68-.51.57-.12,1.22-.18,1.95-.18ZM74.4,141.85c-.43-.11-.98-.21-1.66-.3-.68-.09-1.37-.14-2.07-.14-1.09,0-1.89.2-2.4.6-.51.4-.77.94-.77,1.63s.25,1.22.77,1.59c.51.37,1.15.56,1.92.56.52,0,1.04-.07,1.55-.21.51-.14.96-.34,1.35-.6s.71-.56.95-.91.36-.74.36-1.17v-1.03Z"></path><path class="st4" d="M83.6,146.8h-.89c-1.15,0-2.03-.3-2.65-.91s-.93-1.5-.93-2.67v-8.78h1.76v1.9h2.71v1.36h-2.71v5.44c0,1.51.68,2.26,2.04,2.26h.67v1.4Z"></path><path class="st4" d="M90.7,147.07c-.86,0-1.66-.14-2.39-.43-.73-.29-1.35-.68-1.88-1.17-.53-.49-.94-1.07-1.23-1.73-.3-.66-.44-1.37-.44-2.12s.15-1.45.44-2.11c.3-.67.71-1.25,1.24-1.75.53-.5,1.17-.89,1.9-1.18.74-.29,1.53-.43,2.4-.43s1.66.14,2.39.43c.73.29,1.36.68,1.89,1.17.53.49.95,1.07,1.24,1.73.3.66.45,1.36.45,2.1s-.15,1.46-.46,2.12c-.3.66-.72,1.24-1.25,1.75-.53.51-1.17.9-1.9,1.19-.74.29-1.53.43-2.4.43ZM90.68,137.48c-.62,0-1.18.1-1.68.31-.5.21-.92.5-1.26.87-.34.37-.61.8-.79,1.3-.18.49-.27,1.02-.27,1.59s.1,1.1.29,1.6c.2.5.47.93.83,1.3s.78.66,1.27.87c.49.22,1.04.32,1.65.32s1.18-.1,1.68-.31c.5-.21.92-.5,1.26-.86.34-.37.61-.79.8-1.29.19-.49.28-1.02.28-1.59s-.1-1.1-.29-1.6-.47-.94-.83-1.31c-.36-.37-.79-.67-1.28-.88-.5-.22-1.05-.32-1.66-.32Z"></path><path class="st4" d="M115.29,134.1h-8.63v4.83h7.72v1.46h-7.72v4.95h8.74v1.46h-10.33v-14.16h10.23v1.46Z"></path><path class="st4" d="M129.32,136.09c.69,0,1.34.13,1.95.39.61.26,1.15.62,1.6,1.06.45.45.81.97,1.07,1.57s.39,1.24.39,1.93v5.76h-1.7v-2.06h-.02v-3.69c0-.44-.07-.88-.21-1.32s-.35-.82-.63-1.16-.62-.61-1.03-.82c-.41-.21-.89-.31-1.42-.31s-1.01.1-1.43.31c-.41.21-.76.48-1.04.82s-.5.72-.64,1.15c-.14.43-.21.87-.21,1.31v5.77h-1.7v-5.77c0-.44-.07-.88-.21-1.31-.14-.43-.35-.81-.64-1.15s-.63-.61-1.04-.82c-.41-.21-.89-.31-1.43-.31s-1.01.1-1.43.31c-.41.21-.75.48-1.03.82s-.49.72-.63,1.16-.21.88-.21,1.32v5.75h-1.72v-5.76c0-.69.13-1.33.39-1.93.26-.6.62-1.12,1.07-1.57.45-.45.98-.8,1.6-1.06s1.26-.39,1.95-.39c.88,0,1.68.2,2.41.6.73.4,1.31.93,1.76,1.59.46-.66,1.05-1.19,1.77-1.59.72-.4,1.52-.6,2.4-.6Z"></path><path class="st4" d="M142.89,136.09c.82,0,1.58.14,2.26.42s1.28.66,1.77,1.14.87,1.04,1.14,1.68c.27.64.4,1.32.4,2.03s-.13,1.39-.4,2.02c-.27.63-.65,1.19-1.13,1.66-.49.47-1.07.85-1.75,1.12-.68.28-1.43.41-2.25.41s-1.54-.13-2.19-.39c-.65-.26-1.22-.63-1.69-1.1v4.97h-1.64v-13.71h1.64v1.23c.47-.47,1.03-.84,1.67-1.1s1.37-.39,2.17-.39ZM142.89,145.27c.58,0,1.11-.1,1.59-.3s.89-.48,1.23-.84c.34-.36.61-.77.8-1.25.19-.48.28-.99.28-1.55s-.09-1.04-.27-1.52c-.18-.47-.44-.88-.77-1.23s-.73-.63-1.21-.83-1.01-.3-1.61-.3-1.11.1-1.58.3c-.47.2-.88.48-1.22.84-.34.36-.61.78-.8,1.25-.19.48-.28.99-.28,1.53s.09,1.04.26,1.52c.17.47.43.89.77,1.24.34.36.74.64,1.21.84s1,.3,1.6.3Z"></path><path class="st4" d="M156.05,136.15v1.56h-.63c-.46,0-.89.09-1.28.27-.4.18-.75.43-1.04.74-.3.31-.53.67-.71,1.07-.17.4-.26.83-.26,1.27v5.74h-1.7v-5.74c0-.67.13-1.31.39-1.91.26-.6.62-1.12,1.07-1.57.45-.44.98-.79,1.59-1.05.61-.26,1.25-.38,1.94-.38h.63Z"></path><path class="st4" d="M166.59,146.16c-.44.27-.94.48-1.49.64-.55.15-1.18.23-1.89.23-.78,0-1.52-.13-2.21-.39-.7-.26-1.3-.63-1.81-1.1-.51-.47-.92-1.04-1.22-1.72-.3-.67-.46-1.42-.46-2.22,0-.75.14-1.46.42-2.12.28-.66.66-1.24,1.14-1.73s1.06-.88,1.73-1.16c.67-.28,1.4-.42,2.19-.42.85,0,1.6.15,2.26.43.66.29,1.22.68,1.67,1.17.45.49.8,1.08,1.04,1.75.24.67.36,1.39.36,2.16v.22c0,.08,0,.17-.02.26h-9.08c.05.56.2,1.06.44,1.5.24.44.55.8.91,1.11.36.3.78.53,1.23.68.46.15.94.23,1.44.23.73,0,1.36-.11,1.89-.33.53-.22,1.01-.51,1.45-.89v1.7ZM162.95,137.44c-.5,0-.96.09-1.4.27s-.81.43-1.13.75c-.32.32-.59.69-.8,1.12-.21.43-.34.9-.39,1.42h7.36c-.04-.47-.14-.92-.31-1.35s-.4-.81-.71-1.13c-.3-.32-.67-.58-1.11-.78-.44-.2-.94-.29-1.51-.29Z"></path><path class="st4" d="M174.31,140.83c.45.12.89.26,1.33.41.44.15.83.35,1.18.58.35.23.63.5.85.83.21.32.32.72.32,1.19v.04c0,.5-.1.94-.31,1.33-.21.39-.5.72-.87.99-.37.27-.8.47-1.29.62-.49.14-1.02.21-1.59.21-.66,0-1.32-.09-1.99-.27-.67-.18-1.3-.43-1.89-.74v-1.66c.62.43,1.26.75,1.93.98.67.23,1.34.34,2.03.34s1.25-.15,1.7-.44c.45-.3.67-.7.67-1.21v-.04c0-.26-.08-.48-.23-.67s-.36-.35-.63-.49c-.26-.14-.57-.27-.91-.37-.34-.11-.71-.21-1.08-.3-.45-.12-.89-.25-1.34-.39-.45-.14-.86-.32-1.22-.55-.36-.22-.66-.49-.88-.82-.22-.32-.33-.73-.33-1.21v-.04c0-.44.1-.85.29-1.22.2-.37.46-.69.81-.95.34-.26.75-.47,1.22-.62.47-.15.99-.22,1.56-.22.46,0,.92.05,1.39.14.46.09.92.22,1.36.36v1.52c-.94-.44-1.87-.67-2.79-.67-.69,0-1.23.14-1.62.43-.39.29-.59.65-.59,1.08v.04c0,.24.08.45.24.64.16.18.38.34.66.47.28.13.59.26.94.36s.71.21,1.09.32Z"></path><path class="st4" d="M184.94,136.09c1.57,0,2.78.36,3.62,1.08.84.72,1.26,1.79,1.26,3.21v6.43h-1.64v-1.6c-.2.24-.46.47-.77.69-.31.22-.66.41-1.04.58-.38.17-.81.3-1.27.4-.47.1-.95.15-1.45.15-.53,0-1.04-.07-1.54-.21s-.94-.35-1.31-.63c-.38-.28-.68-.62-.91-1.04s-.34-.9-.34-1.46c0-1.13.42-1.99,1.27-2.58.85-.59,2-.88,3.46-.88.73,0,1.43.04,2.11.12.68.08,1.28.19,1.79.32v-.28c0-.97-.3-1.7-.9-2.18-.6-.49-1.44-.73-2.51-.73-.69,0-1.3.07-1.85.22-.55.15-1.09.34-1.61.57v-1.5c.55-.21,1.11-.38,1.68-.51.57-.12,1.22-.18,1.95-.18ZM188.2,141.85c-.43-.11-.98-.21-1.66-.3-.68-.09-1.37-.14-2.07-.14-1.09,0-1.89.2-2.4.6-.51.4-.77.94-.77,1.63s.25,1.22.77,1.59c.51.37,1.15.56,1.92.56.52,0,1.04-.07,1.55-.21.51-.14.96-.34,1.35-.6s.71-.56.95-.91.36-.74.36-1.17v-1.03Z"></path><path class="st4" d="M198.05,136.15v1.56h-.63c-.46,0-.89.09-1.28.27-.4.18-.75.43-1.04.74-.3.31-.53.67-.71,1.07-.17.4-.26.83-.26,1.27v5.74h-1.7v-5.74c0-.67.13-1.31.39-1.91.26-.6.62-1.12,1.07-1.57.45-.44.98-.79,1.59-1.05.61-.26,1.25-.38,1.94-.38h.63Z"></path><path class="st4" d="M202.14,132.4v1.36h-1.8v-1.36h1.8ZM200.34,136.31h1.8v10.5h-1.8v-10.5Z"></path><path class="st4" d="M209.51,136.09c1.57,0,2.78.36,3.62,1.08.84.72,1.26,1.79,1.26,3.21v6.43h-1.64v-1.6c-.2.24-.46.47-.77.69-.31.22-.66.41-1.04.58-.38.17-.81.3-1.27.4-.47.1-.95.15-1.45.15-.53,0-1.04-.07-1.54-.21s-.94-.35-1.31-.63c-.38-.28-.68-.62-.91-1.04s-.34-.9-.34-1.46c0-1.13.42-1.99,1.27-2.58.85-.59,2-.88,3.46-.88.73,0,1.43.04,2.11.12.68.08,1.28.19,1.79.32v-.28c0-.97-.3-1.7-.9-2.18-.6-.49-1.44-.73-2.51-.73-.69,0-1.3.07-1.85.22-.55.15-1.09.34-1.61.57v-1.5c.55-.21,1.11-.38,1.68-.51.57-.12,1.22-.18,1.95-.18ZM212.77,141.85c-.43-.11-.98-.21-1.66-.3-.68-.09-1.37-.14-2.07-.14-1.09,0-1.89.2-2.4.6-.51.4-.77.94-.77,1.63s.25,1.22.77,1.59c.51.37,1.15.56,1.92.56.52,0,1.04-.07,1.55-.21.51-.14.96-.34,1.35-.6s.71-.56.95-.91.36-.74.36-1.17v-1.03Z"></path><path class="st4" d="M217.14,146.82v-14.78h1.72v14.78h-1.72Z"></path><path class="st4" d="M239.08,132.04v14.76h-1.76v-1.33c-.49.49-1.08.87-1.77,1.16s-1.47.43-2.34.43-1.7-.15-2.44-.46c-.73-.3-1.37-.71-1.89-1.22-.53-.51-.93-1.11-1.22-1.8-.29-.69-.43-1.42-.43-2.18s.14-1.49.43-2.16c.29-.67.69-1.27,1.21-1.78.52-.51,1.14-.92,1.87-1.21.73-.3,1.54-.45,2.43-.45s1.66.15,2.36.43c.69.29,1.29.68,1.79,1.18v-5.38h1.76ZM233.18,145.61c.62,0,1.18-.11,1.69-.32s.94-.52,1.3-.9c.36-.38.65-.83.85-1.33.2-.51.3-1.05.3-1.65s-.09-1.12-.28-1.64-.46-.96-.82-1.33c-.36-.38-.79-.67-1.29-.89s-1.08-.32-1.71-.32-1.19.11-1.7.33c-.51.22-.95.52-1.32.9-.37.38-.66.83-.86,1.34-.2.52-.3,1.07-.3,1.65s.1,1.12.29,1.63c.2.51.47.95.83,1.33s.79.67,1.3.89c.51.22,1.08.32,1.72.32Z"></path><path class="st4" d="M246.61,147.07c-.86,0-1.66-.14-2.39-.43-.73-.29-1.35-.68-1.88-1.17-.53-.49-.94-1.07-1.23-1.73-.3-.66-.44-1.37-.44-2.12s.15-1.45.44-2.11c.3-.67.71-1.25,1.24-1.75.53-.5,1.17-.89,1.9-1.18.74-.29,1.53-.43,2.4-.43s1.66.14,2.39.43c.73.29,1.36.68,1.89,1.17.53.49.95,1.07,1.24,1.73.3.66.45,1.36.45,2.1s-.15,1.46-.46,2.12c-.3.66-.72,1.24-1.25,1.75-.53.51-1.17.9-1.9,1.19-.74.29-1.53.43-2.4.43ZM246.58,137.48c-.62,0-1.18.1-1.68.31-.5.21-.92.5-1.26.87-.34.37-.61.8-.79,1.3-.18.49-.27,1.02-.27,1.59s.1,1.1.29,1.6c.2.5.47.93.83,1.3s.78.66,1.27.87c.49.22,1.04.32,1.65.32s1.18-.1,1.68-.31c.5-.21.92-.5,1.26-.86.34-.37.61-.79.8-1.29.19-.49.28-1.02.28-1.59s-.1-1.1-.29-1.6-.47-.94-.83-1.31c-.36-.37-.79-.67-1.28-.88-.5-.22-1.05-.32-1.66-.32Z"></path><path class="st4" d="M265.7,138.59c1.71.35,2.98.84,3.79,1.46s1.22,1.48,1.22,2.59c0,.62-.13,1.2-.39,1.74s-.63,1.01-1.09,1.41c-.46.4-1.02.71-1.66.94-.64.23-1.34.34-2.11.34-1.93,0-3.65-.49-5.18-1.48l1.23-1.07c.61.36,1.23.64,1.87.82.64.18,1.35.27,2.13.27.51,0,.98-.08,1.41-.23.42-.15.79-.36,1.09-.63.3-.26.54-.56.7-.9s.24-.69.24-1.05c0-.34-.06-.64-.17-.9-.11-.26-.32-.5-.62-.72-.3-.21-.71-.41-1.22-.6-.52-.18-1.18-.35-1.99-.52-.89-.17-1.66-.36-2.3-.56-.65-.2-1.18-.43-1.61-.71-.42-.28-.74-.61-.94-1.01s-.3-.89-.3-1.49.12-1.09.37-1.58c.25-.49.6-.9,1.05-1.24.45-.34.98-.61,1.6-.81.61-.2,1.28-.29,2.01-.29.82,0,1.56.08,2.22.23.66.16,1.29.39,1.88.7v1.86c-.67-.47-1.35-.81-2.02-1.02s-1.38-.31-2.12-.31c-1.01,0-1.81.22-2.4.67-.59.45-.88,1-.88,1.66,0,.34.06.62.18.85.12.23.34.43.65.61s.73.34,1.27.49c.54.15,1.23.31,2.08.49Z"></path><path class="st4" d="M274.69,132.4v1.36h-1.8v-1.36h1.8ZM272.89,136.31h1.8v10.5h-1.8v-10.5Z"></path><path class="st4" d="M281.31,140.83c.45.12.89.26,1.33.41.44.15.83.35,1.18.58.35.23.63.5.85.83.21.32.32.72.32,1.19v.04c0,.5-.1.94-.31,1.33-.21.39-.5.72-.87.99-.37.27-.8.47-1.29.62-.49.14-1.02.21-1.59.21-.66,0-1.32-.09-1.99-.27-.67-.18-1.3-.43-1.89-.74v-1.66c.62.43,1.26.75,1.93.98.67.23,1.34.34,2.03.34s1.25-.15,1.7-.44c.45-.3.67-.7.67-1.21v-.04c0-.26-.08-.48-.23-.67s-.36-.35-.63-.49c-.26-.14-.57-.27-.91-.37-.34-.11-.71-.21-1.08-.3-.45-.12-.89-.25-1.34-.39-.45-.14-.86-.32-1.22-.55-.36-.22-.66-.49-.88-.82-.22-.32-.33-.73-.33-1.21v-.04c0-.44.1-.85.29-1.22.2-.37.46-.69.81-.95.34-.26.75-.47,1.22-.62.47-.15.99-.22,1.56-.22.46,0,.92.05,1.39.14.46.09.92.22,1.36.36v1.52c-.94-.44-1.87-.67-2.79-.67-.69,0-1.23.14-1.62.43-.39.29-.59.65-.59,1.08v.04c0,.24.08.45.24.64.16.18.38.34.66.47.28.13.59.26.94.36s.71.21,1.09.32Z"></path><path class="st4" d="M292.25,146.8h-.89c-1.15,0-2.03-.3-2.65-.91s-.93-1.5-.93-2.67v-8.78h1.76v1.9h2.71v1.36h-2.71v5.44c0,1.51.68,2.26,2.04,2.26h.67v1.4Z"></path><path class="st4" d="M302.92,146.16c-.44.27-.94.48-1.49.64-.55.15-1.18.23-1.89.23-.78,0-1.52-.13-2.21-.39-.7-.26-1.3-.63-1.81-1.1-.51-.47-.92-1.04-1.22-1.72-.3-.67-.46-1.42-.46-2.22,0-.75.14-1.46.42-2.12.28-.66.66-1.24,1.14-1.73s1.06-.88,1.73-1.16c.67-.28,1.4-.42,2.19-.42.85,0,1.6.15,2.26.43.66.29,1.22.68,1.67,1.17.45.49.8,1.08,1.04,1.75.24.67.36,1.39.36,2.16v.22c0,.08,0,.17-.02.26h-9.08c.05.56.2,1.06.44,1.5.24.44.55.8.91,1.11.36.3.78.53,1.23.68.46.15.94.23,1.44.23.73,0,1.36-.11,1.89-.33.53-.22,1.01-.51,1.45-.89v1.7ZM299.28,137.44c-.5,0-.96.09-1.4.27s-.81.43-1.13.75c-.32.32-.59.69-.8,1.12-.21.43-.34.9-.39,1.42h7.36c-.04-.47-.14-.92-.31-1.35s-.4-.81-.71-1.13c-.3-.32-.67-.58-1.11-.78-.44-.2-.94-.29-1.51-.29Z"></path><path class="st4" d="M319.69,136.09c.69,0,1.34.13,1.95.39.61.26,1.15.62,1.6,1.06.45.45.81.97,1.07,1.57s.39,1.24.39,1.93v5.76h-1.7v-2.06h-.02v-3.69c0-.44-.07-.88-.21-1.32s-.35-.82-.63-1.16-.62-.61-1.03-.82c-.41-.21-.89-.31-1.42-.31s-1.01.1-1.43.31c-.41.21-.76.48-1.04.82s-.5.72-.64,1.15c-.14.43-.21.87-.21,1.31v5.77h-1.7v-5.77c0-.44-.07-.88-.21-1.31-.14-.43-.35-.81-.64-1.15s-.63-.61-1.04-.82c-.41-.21-.89-.31-1.43-.31s-1.01.1-1.43.31c-.41.21-.75.48-1.03.82s-.49.72-.63,1.16-.21.88-.21,1.32v5.75h-1.72v-5.76c0-.69.13-1.33.39-1.93.26-.6.62-1.12,1.07-1.57.45-.45.98-.8,1.6-1.06s1.26-.39,1.95-.39c.88,0,1.68.2,2.41.6.73.4,1.31.93,1.76,1.59.46-.66,1.05-1.19,1.77-1.59.72-.4,1.52-.6,2.4-.6Z"></path><path class="st4" d="M332.42,136.09c1.57,0,2.78.36,3.62,1.08.84.72,1.26,1.79,1.26,3.21v6.43h-1.64v-1.6c-.2.24-.46.47-.77.69-.31.22-.66.41-1.04.58-.38.17-.81.3-1.27.4-.47.1-.95.15-1.45.15-.53,0-1.04-.07-1.54-.21s-.94-.35-1.31-.63c-.38-.28-.68-.62-.91-1.04s-.34-.9-.34-1.46c0-1.13.42-1.99,1.27-2.58.85-.59,2-.88,3.46-.88.73,0,1.43.04,2.11.12.68.08,1.28.19,1.79.32v-.28c0-.97-.3-1.7-.9-2.18-.6-.49-1.44-.73-2.51-.73-.69,0-1.3.07-1.85.22-.55.15-1.09.34-1.61.57v-1.5c.55-.21,1.11-.38,1.68-.51.57-.12,1.22-.18,1.95-.18ZM335.68,141.85c-.43-.11-.98-.21-1.66-.3-.68-.09-1.37-.14-2.07-.14-1.09,0-1.89.2-2.4.6-.51.4-.77.94-.77,1.63s.25,1.22.77,1.59c.51.37,1.15.56,1.92.56.52,0,1.04-.07,1.55-.21.51-.14.96-.34,1.35-.6s.71-.56.95-.91.36-.74.36-1.17v-1.03Z"></path><path class="st4" d="M353.98,146.98c-.39.04-.79.06-1.19.06-1.12,0-2.15-.19-3.1-.57-.95-.38-1.77-.89-2.47-1.55-.69-.65-1.24-1.42-1.63-2.31-.39-.88-.59-1.84-.59-2.86s.19-1.96.59-2.85c.39-.89.93-1.67,1.63-2.34.69-.67,1.52-1.19,2.48-1.58.96-.38,2.01-.58,3.15-.58.39,0,.77.02,1.13.06v1.48c-.19-.03-.38-.05-.57-.06-.19-.01-.38-.02-.59-.02-.86,0-1.66.15-2.4.45-.73.3-1.37.71-1.9,1.24-.53.53-.95,1.15-1.25,1.86s-.46,1.48-.46,2.3.15,1.6.46,2.31c.3.72.72,1.34,1.26,1.87s1.18.94,1.91,1.24c.73.3,1.53.45,2.38.45.2,0,.4,0,.59-.02.19-.01.38-.03.57-.06v1.48Z"></path><path class="st4" d="M360.37,147.07c-.86,0-1.66-.14-2.39-.43-.73-.29-1.35-.68-1.88-1.17-.53-.49-.94-1.07-1.23-1.73-.3-.66-.44-1.37-.44-2.12s.15-1.45.44-2.11c.3-.67.71-1.25,1.24-1.75.53-.5,1.17-.89,1.9-1.18.74-.29,1.53-.43,2.4-.43s1.66.14,2.39.43c.73.29,1.36.68,1.89,1.17.53.49.95,1.07,1.24,1.73.3.66.45,1.36.45,2.1s-.15,1.46-.46,2.12c-.3.66-.72,1.24-1.25,1.75-.53.51-1.17.9-1.9,1.19-.74.29-1.53.43-2.4.43ZM360.35,137.48c-.62,0-1.18.1-1.68.31-.5.21-.92.5-1.26.87-.34.37-.61.8-.79,1.3-.18.49-.27,1.02-.27,1.59s.1,1.1.29,1.6c.2.5.47.93.83,1.3s.78.66,1.27.87c.49.22,1.04.32,1.65.32s1.18-.1,1.68-.31c.5-.21.92-.5,1.26-.86.34-.37.61-.79.8-1.29.19-.49.28-1.02.28-1.59s-.1-1.1-.29-1.6-.47-.94-.83-1.31c-.36-.37-.79-.67-1.28-.88-.5-.22-1.05-.32-1.66-.32Z"></path><path class="st4" d="M381.16,136.09c.69,0,1.34.13,1.95.39.61.26,1.15.62,1.6,1.06.45.45.81.97,1.07,1.57s.39,1.24.39,1.93v5.76h-1.7v-2.06h-.02v-3.69c0-.44-.07-.88-.21-1.32s-.35-.82-.63-1.16-.62-.61-1.03-.82c-.41-.21-.89-.31-1.42-.31s-1.01.1-1.43.31c-.41.21-.76.48-1.04.82s-.5.72-.64,1.15c-.14.43-.21.87-.21,1.31v5.77h-1.7v-5.77c0-.44-.07-.88-.21-1.31-.14-.43-.35-.81-.64-1.15s-.63-.61-1.04-.82c-.41-.21-.89-.31-1.43-.31s-1.01.1-1.43.31c-.41.21-.75.48-1.03.82s-.49.72-.63,1.16-.21.88-.21,1.32v5.75h-1.72v-5.76c0-.69.13-1.33.39-1.93.26-.6.62-1.12,1.07-1.57.45-.45.98-.8,1.6-1.06s1.26-.39,1.95-.39c.88,0,1.68.2,2.41.6.73.4,1.31.93,1.76,1.59.46-.66,1.05-1.19,1.77-1.59.72-.4,1.52-.6,2.4-.6Z"></path><path class="st4" d="M397.64,146.16c-.44.27-.94.48-1.49.64-.55.15-1.18.23-1.89.23-.78,0-1.52-.13-2.21-.39-.7-.26-1.3-.63-1.81-1.1-.51-.47-.92-1.04-1.22-1.72-.3-.67-.46-1.42-.46-2.22,0-.75.14-1.46.42-2.12.28-.66.66-1.24,1.14-1.73s1.06-.88,1.73-1.16c.67-.28,1.4-.42,2.19-.42.85,0,1.6.15,2.26.43.66.29,1.22.68,1.67,1.17.45.49.8,1.08,1.04,1.75.24.67.36,1.39.36,2.16v.22c0,.08,0,.17-.02.26h-9.08c.05.56.2,1.06.44,1.5.24.44.55.8.91,1.11.36.3.78.53,1.23.68.46.15.94.23,1.44.23.73,0,1.36-.11,1.89-.33.53-.22,1.01-.51,1.45-.89v1.7ZM394,137.44c-.5,0-.96.09-1.4.27s-.81.43-1.13.75c-.32.32-.59.69-.8,1.12-.21.43-.34.9-.39,1.42h7.36c-.04-.47-.14-.92-.31-1.35s-.4-.81-.71-1.13c-.3-.32-.67-.58-1.11-.78-.44-.2-.94-.29-1.51-.29ZM393.05,134.77l1.9-2.43h2.12l-2.73,2.43h-1.29Z"></path><path class="st4" d="M406.44,136.15v1.56h-.63c-.46,0-.89.09-1.28.27-.4.18-.75.43-1.04.74-.3.31-.53.67-.71,1.07-.17.4-.26.83-.26,1.27v5.74h-1.7v-5.74c0-.67.13-1.31.39-1.91.26-.6.62-1.12,1.07-1.57.45-.44.98-.79,1.59-1.05.61-.26,1.25-.38,1.94-.38h.63Z"></path><path class="st4" d="M413.92,147.01c-.31.04-.63.06-.97.06-.89,0-1.72-.14-2.49-.43s-1.43-.68-1.99-1.17-1-1.07-1.31-1.73c-.32-.66-.47-1.36-.47-2.1s.16-1.45.47-2.11c.32-.67.75-1.25,1.31-1.76.56-.5,1.22-.9,1.99-1.19s1.6-.43,2.49-.43c.34,0,.66.02.97.06v1.39c-.34-.07-.67-.1-.99-.1-.62,0-1.2.1-1.73.31-.53.21-.99.5-1.39.87-.39.37-.7.81-.92,1.31-.22.5-.33,1.03-.33,1.6s.11,1.1.34,1.6c.23.5.54.94.94,1.31.4.37.87.66,1.42.87.55.21,1.14.31,1.79.31.32,0,.61-.03.87-.08v1.42Z"></path><path class="st4" d="M417.96,132.4v1.36h-1.8v-1.36h1.8ZM416.16,136.31h1.8v10.5h-1.8v-10.5Z"></path><path class="st4" d="M425.51,147.07c-.86,0-1.66-.14-2.39-.43-.73-.29-1.35-.68-1.88-1.17-.53-.49-.94-1.07-1.23-1.73-.3-.66-.44-1.37-.44-2.12s.15-1.45.44-2.11c.3-.67.71-1.25,1.24-1.75.53-.5,1.17-.89,1.9-1.18.74-.29,1.53-.43,2.4-.43s1.66.14,2.39.43c.73.29,1.36.68,1.89,1.17.53.49.95,1.07,1.24,1.73.3.66.45,1.36.45,2.1s-.15,1.46-.46,2.12c-.3.66-.72,1.24-1.25,1.75-.53.51-1.17.9-1.9,1.19-.74.29-1.53.43-2.4.43ZM425.49,137.48c-.62,0-1.18.1-1.68.31-.5.21-.92.5-1.26.87-.34.37-.61.8-.79,1.3-.18.49-.27,1.02-.27,1.59s.1,1.1.29,1.6c.2.5.47.93.83,1.3s.78.66,1.27.87c.49.22,1.04.32,1.65.32s1.18-.1,1.68-.31c.5-.21.92-.5,1.26-.86.34-.37.61-.79.8-1.29.19-.49.28-1.02.28-1.59s-.1-1.1-.29-1.6-.47-.94-.83-1.31c-.36-.37-.79-.67-1.28-.88-.5-.22-1.05-.32-1.66-.32Z"></path></g><g><path class="st4" d="M30.26,78.46c2.32.56,4.4,1.19,6.24,1.89,1.84.7,3.39,1.55,4.65,2.55,1.26,1,2.22,2.18,2.88,3.54.66,1.36.99,2.96.99,4.8v.12c0,2.12-.42,3.99-1.26,5.61-.84,1.62-2.02,2.99-3.54,4.11-1.52,1.12-3.32,1.97-5.4,2.55-2.08.58-4.38.87-6.9.87-7.04,0-13.34-2.26-18.89-6.78l6.06-6.6c2.08,1.6,4.12,2.85,6.12,3.75,2,.9,4.3,1.35,6.9,1.35,2.16,0,3.82-.35,4.98-1.05,1.16-.7,1.74-1.67,1.74-2.91v-.12c0-.6-.08-1.13-.24-1.59-.16-.46-.53-.9-1.11-1.32-.58-.42-1.43-.83-2.55-1.23-1.12-.4-2.66-.82-4.62-1.26-2.36-.52-4.48-1.1-6.36-1.74-1.88-.64-3.5-1.44-4.86-2.4-1.36-.96-2.4-2.15-3.12-3.57-.72-1.42-1.08-3.19-1.08-5.31v-.12c0-1.92.4-3.67,1.2-5.25.8-1.58,1.92-2.92,3.36-4.02,1.44-1.1,3.16-1.96,5.16-2.58s4.2-.93,6.6-.93c1.36,0,2.73.14,4.11.42,1.38.28,2.51.52,3.39.72v8.88c-.92-.36-2.09-.74-3.51-1.14-1.42-.4-2.81-.6-4.17-.6-1.96,0-3.44.35-4.44,1.05-1,.7-1.5,1.57-1.5,2.61v.12c0,.72.1,1.33.3,1.83.2.5.62.94,1.26,1.32.64.38,1.57.76,2.79,1.14s2.83.81,4.83,1.29Z"></path><path class="st4" d="M57.07,59.8v7.08h-10.32v-7.08h10.32ZM46.75,71.74h10.32v31.85h-10.32v-31.85Z"></path><path class="st4" d="M94.5,103.59h-10.38v-17.82c0-.8-.1-1.62-.3-2.46-.2-.84-.54-1.6-1.02-2.28-.48-.68-1.12-1.24-1.92-1.68-.8-.44-1.8-.66-3-.66s-2.19.22-2.97.66c-.78.44-1.41,1-1.89,1.68-.48.68-.82,1.44-1.02,2.28s-.3,1.66-.3,2.46v17.82h-10.5v-17.16c0-2.2.34-4.25,1.02-6.15.68-1.9,1.71-3.55,3.09-4.95,1.38-1.4,3.11-2.5,5.19-3.3,2.08-.8,4.54-1.2,7.38-1.2s5.25.4,7.35,1.2c2.1.8,3.83,1.9,5.19,3.3,1.36,1.4,2.38,3.05,3.06,4.95.68,1.9,1.02,3.95,1.02,6.15v17.16Z"></path><path class="st4" d="M95.76,87.45c0-2.64.45-4.92,1.35-6.84.9-1.92,2.06-3.53,3.48-4.83,1.42-1.3,3.03-2.32,4.83-3.06,1.8-.74,3.58-1.28,5.34-1.62s3.42-.5,4.98-.48c1.56.02,2.84.15,3.84.39v6.78c-1.08-.16-2.4-.14-3.96.06-1.56.2-3.08.67-4.56,1.41-1.48.74-2.74,1.77-3.78,3.09-1.04,1.32-1.56,3.02-1.56,5.1s.52,3.79,1.56,5.13c1.04,1.34,2.29,2.37,3.75,3.09,1.46.72,2.98,1.17,4.56,1.35,1.58.18,2.91.15,3.99-.09v6.96c-1,.24-2.28.37-3.84.39s-3.22-.14-4.98-.48-3.54-.88-5.34-1.62c-1.8-.74-3.41-1.76-4.83-3.06-1.42-1.3-2.58-2.9-3.48-4.8-.9-1.9-1.35-4.19-1.35-6.87Z"></path><path class="st4" d="M138.35,70.96c5.64,0,9.76,1.23,12.36,3.69,2.6,2.46,3.9,5.87,3.9,10.23v18.77h-10.02v-3.54c-1.28,1.28-2.81,2.29-4.59,3.03-1.78.74-3.93,1.11-6.45,1.11-1.72,0-3.33-.22-4.83-.66s-2.82-1.08-3.96-1.91c-1.14-.84-2.04-1.86-2.7-3.08-.66-1.21-.99-2.62-.99-4.22v-.12c0-1.75.36-3.28,1.08-4.58.72-1.29,1.73-2.36,3.03-3.2,1.3-.84,2.85-1.46,4.65-1.88,1.8-.42,3.78-.63,5.94-.63,1.84,0,3.46.12,4.86.36,1.4.24,2.74.55,4.02.95v-.54c0-3.95-2.6-5.92-7.8-5.92-2.24,0-4.18.2-5.82.6v-7.86c1.08-.2,2.22-.35,3.42-.45,1.2-.1,2.5-.15,3.9-.15ZM144.83,90.63c-.92-.36-1.93-.65-3.03-.87-1.1-.22-2.29-.33-3.57-.33-2.28,0-4.05.38-5.31,1.14-1.26.76-1.89,1.86-1.89,3.3v.12c0,1.24.53,2.2,1.59,2.88,1.06.68,2.43,1.02,4.11,1.02,2.4,0,4.35-.52,5.85-1.56s2.25-2.4,2.25-4.08v-1.62Z"></path></g></g><g><path class="st12" d="M211.9,76.32c0,2.71-.58,5.01-1.74,6.89s-2.74,3.42-4.74,4.59c.63.59,1.16,1.24,1.59,1.94.43.71.8,1.49,1.12,2.36l4.18,10.78h-10.31l-3.3-8.13c-.55-1.3-1.45-2.3-2.71-3-1.26-.71-2.89-1.06-4.89-1.06h-2.42v12.19h-9.72v-40.82h15.96c2.63,0,5,.34,7.1,1.03,2.1.69,3.88,1.65,5.33,2.89,1.45,1.24,2.57,2.73,3.36,4.48.79,1.75,1.18,3.66,1.18,5.74v.12ZM188.69,83.74h5.6c1.22,0,2.31-.22,3.27-.65.96-.43,1.77-.99,2.42-1.68.65-.69,1.15-1.46,1.5-2.33.35-.86.53-1.73.53-2.59v-.12c0-.98-.19-1.91-.56-2.8-.37-.88-.89-1.66-1.56-2.33-.67-.67-1.49-1.19-2.47-1.56-.98-.37-2.08-.56-3.3-.56h-5.42v14.61Z"></path><path class="st12" d="M235.1,78.21c2.28.55,4.32,1.17,6.13,1.86,1.81.69,3.33,1.52,4.56,2.5,1.24.98,2.18,2.14,2.83,3.48s.97,2.91.97,4.71v.12c0,2.08-.41,3.92-1.24,5.51-.83,1.59-1.98,2.94-3.48,4.04-1.49,1.1-3.26,1.93-5.3,2.5-2.04.57-4.3.85-6.77.85-6.91,0-13.1-2.22-18.55-6.66l5.95-6.48c2.04,1.57,4.04,2.8,6.01,3.68,1.96.88,4.22,1.33,6.77,1.33,2.12,0,3.75-.34,4.89-1.03,1.14-.69,1.71-1.64,1.71-2.86v-.12c0-.59-.08-1.11-.24-1.56-.16-.45-.52-.88-1.09-1.3-.57-.41-1.4-.81-2.5-1.21-1.1-.39-2.61-.8-4.54-1.24-2.32-.51-4.4-1.08-6.24-1.71-1.85-.63-3.44-1.41-4.77-2.36s-2.36-2.11-3.06-3.5c-.71-1.39-1.06-3.13-1.06-5.21v-.12c0-1.88.39-3.6,1.18-5.15.79-1.55,1.88-2.87,3.3-3.95,1.41-1.08,3.1-1.92,5.07-2.53,1.96-.61,4.12-.91,6.48-.91,1.33,0,2.68.14,4.04.41s2.46.51,3.33.71v8.72c-.9-.35-2.05-.73-3.45-1.12-1.39-.39-2.76-.59-4.09-.59-1.92,0-3.38.34-4.36,1.03-.98.69-1.47,1.54-1.47,2.56v.12c0,.71.1,1.31.29,1.8.2.49.61.92,1.24,1.3.63.37,1.54.75,2.74,1.12,1.2.37,2.78.8,4.74,1.27Z"></path></g></g><g><g><path class="st11" d="M-448.38,601.7h-63.42c-13.9,0-28.09,7.49-34.66,12.19-31.69,22.65-47.27,68.45-47.27,68.45,4.4-7.66,36.72-66.86,80.56-66.86h46.33s.13,7.66-3.91,12.97c25.17-8.67,22.37-26.74,22.37-26.74"></path><path class="st11" d="M-503.83,632.99c-.08,1.51-.41,5.84-2.47,9.68h-.03v.02c20.7-1.81,30.69-8.03,35.41-14.2-7.92,2.71-18.55,4.49-32.91,4.49"></path><path class="st11" d="M-518.79,643.27s-4.49-.05-12.79-.24c-33.27-.76-49.01,23.44-56.7,35.22,7.69-8.03,22.72-22.99,49.99-22.47,21.13.4,28.93-6.43,32.08-13.1-3.84.35-7.99.69-12.57.61"></path></g><g><text class="st2" transform="translate(-800.04 796.12)"><tspan x="0" y="0">Sindicato Empresarial do Sistema Comércio</tspan></text><text class="st8" transform="translate(-800.84 735.43)"><tspan x="0" y="0">Sinca</tspan></text></g><text class="st9" transform="translate(-567.16 734.44)"><tspan x="0" y="0">RS</tspan></text></g><g><g><path class="st6" d="M-488.72,1151.69h-63.42c-13.9,0-28.09,7.49-34.66,12.19-31.69,22.65-47.27,68.45-47.27,68.45,4.4-7.66,36.72-66.86,80.56-66.86h46.33s.13,7.66-3.91,12.97c25.17-8.67,22.37-26.74,22.37-26.74"></path><path class="st6" d="M-544.17,1182.98c-.08,1.51-.41,5.84-2.47,9.68h-.03v.02c20.7-1.81,30.69-8.03,35.41-14.2-7.92,2.71-18.55,4.49-32.91,4.49"></path><path class="st6" d="M-559.13,1193.27s-4.49-.05-12.79-.24c-33.27-.76-49.01,23.44-56.7,35.22,7.69-8.03,22.72-22.99,49.99-22.47,21.13.4,28.93-6.43,32.08-13.1-3.84.35-7.99.69-12.57.61"></path></g><g><text class="st1" transform="translate(-840.37 1346.11)"><tspan x="0" y="0">Sindicato Empresarial do Sistema Comércio</tspan></text><text class="st5" transform="translate(-841.17 1285.42)"><tspan x="0" y="0">Sinca</tspan></text></g><text class="st7" transform="translate(-607.5 1284.43)"><tspan x="0" y="0">RS</tspan></text></g></svg> 